<?xml version="1.0" standalone="no"?>
<!DOCTYPE svg PUBLIC "-//W3C//DTD SVG 20010904//EN"
 "http://www.w3.org/TR/2001/REC-SVG-20010904/DTD/svg10.dtd">
<svg version="1.0" xmlns="http://www.w3.org/2000/svg"
 width="512.000000pt" height="512.000000pt" viewBox="0 0 512.000000 512.000000"
 preserveAspectRatio="xMidYMid meet">

<g transform="translate(0.000000,512.000000) scale(0.100000,-0.100000)"
fill="#000000" stroke="none">
<path d="M2321 5109 c-486 -43 -989 -249 -1376 -564 -114 -92 -294 -274 -384
-387 -229 -287 -417 -675 -495 -1023 -49 -218 -60 -325 -60 -575 0 -250 11
-357 60 -575 79 -355 272 -749 509 -1040 92 -114 274 -294 387 -384 287 -229
675 -417 1023 -495 218 -49 325 -60 575 -60 250 0 357 11 575 60 261 58 603
204 828 353 389 259 688 599 893 1016 165 337 246 658 261 1033 23 598 -168
1183 -545 1672 -84 109 -323 348 -432 432 -528 407 -1164 595 -1819 537z
m1297 -408 c349 -176 683 -461 886 -755 l38 -55 -89 -377 -88 -377 -460 -154
c-253 -84 -464 -153 -470 -153 -6 0 -184 140 -398 310 l-387 310 2 467 3 467
440 177 c242 97 441 178 443 178 1 1 37 -17 80 -38z m-1588 -145 l435 -173 3
-466 2 -467 -387 -310 c-214 -170 -392 -310 -398 -310 -6 0 -217 69 -470 153
l-460 154 -88 377 -89 377 38 55 c161 233 454 506 704 655 113 66 236 129 255
128 11 0 216 -78 455 -173z m-855 -1739 l460 -153 118 -468 118 -468 -228
-304 c-125 -167 -234 -304 -242 -304 -8 0 -198 29 -423 65 -225 36 -411 65
-413 65 -2 0 -33 51 -69 114 -144 247 -245 527 -290 801 -31 185 -57 131 239
489 143 173 262 315 265 316 3 0 212 -69 465 -153z m3486 -149 c139 -167 258
-310 265 -318 11 -13 11 -33 -1 -115 -43 -311 -143 -601 -300 -870 l-65 -113
-63 -10 c-252 -43 -788 -125 -790 -121 -2 2 -106 139 -231 305 l-227 301 118
468 118 469 455 152 c250 84 458 153 462 153 4 1 121 -135 259 -301z m-1317
-1349 c226 -299 228 -302 214 -328 -9 -14 -109 -189 -222 -388 -117 -205 -214
-364 -224 -367 -55 -16 -196 -39 -322 -53 -209 -22 -464 -10 -695 33 -28 5
-55 44 -280 397 -138 216 -250 399 -249 407 0 8 99 147 219 308 l220 292 555
0 556 0 228 -301z"/>
</g>
</svg>
